<svg xmlns:xlink="http://www.w3.org/1999/xlink" id="Layer_2" data-name="Layer 2" xmlns="http://www.w3.org/2000/svg" viewBox="0 0 763.24 115" width="763.24" height="115" ><defs><style>
      .cls-1 {
        fill: #2c3357;
      }
    </style></defs><g id="artwork"><g><path class="cls-1" d="M553.1,89.46h-12.16V38.11h12.16v6.81c3.25-4.93,8.49-8.07,15.72-8.07,12.58,0,19.91,8.28,19.91,21.69v30.92h-12.16v-28.61c0-7.97-3.98-12.79-11.42-12.79s-12.05,5.55-12.05,14.36v27.04Zm44.44-22.11v-29.24h12.16v28.51c0,8.07,3.98,12.89,10.69,12.89s10.69-4.82,10.69-12.89v-28.51h12.16v29.24c0,14.78-8.59,23.37-22.85,23.37s-22.85-8.59-22.85-23.37Zm55.44,22.11V16.1h12.05v29.34c3.77-5.34,10.27-8.59,17.4-8.59,14.15,0,25.05,11.53,25.05,26.93s-10.9,26.93-25.05,26.93c-7.13,0-13.62-2.93-17.4-8.28v7.02h-12.05Zm26.93-41.61c-8.7,0-15.41,7.13-15.41,15.93s6.71,15.93,15.41,15.93,15.41-7.13,15.41-15.93-6.71-15.93-15.41-15.93Zm81.54,29.55c-4.3,8.07-12.26,13.31-23.16,13.31-15.62,0-26.73-11.11-26.73-26.93s11.32-26.93,26.1-26.93,25.57,11.53,25.57,26.93c0,.94,0,2.2-.1,3.67h-39.51c.52,7.44,7.13,13,14.78,13,6.71,0,10.17-3.25,13.1-7.76l9.96,4.72Zm-10.27-18.76c-.84-6.81-6.29-11.84-13.73-11.84s-12.89,5.97-13.73,11.84h27.46Z" fill="#2C3357"></path><path class="cls-1" d="M102.25,0h-.06s-.04,0-.06,0c-15.01,.02-29.31,5.91-39.98,16.29-5.46-2.32-11.35-3.52-17.43-3.52C20.06,12.78,0,32.84,0,57.5s20.06,44.72,44.72,44.72c5.99,0,11.91-1.22,17.38-3.53,10.36,10.08,24.49,16.3,40.06,16.3,31.71,0,57.5-25.8,57.5-57.5S133.91,.05,102.25,0m-.1,102.22c-24.66,0-44.72-20.06-44.72-44.72h-12.78c0,11.28,3.27,21.8,8.91,30.68-2.86,.82-5.84,1.26-8.84,1.26-17.61,0-31.94-14.33-31.94-31.94s14.33-31.94,31.94-31.94c6.98,0,13.6,2.21,19.16,6.38,8.12,6.1,12.78,15.42,12.78,25.56h12.78c0-13.38-5.79-25.73-15.97-34.26,7.99-6.71,18.13-10.46,28.72-10.47,24.64,.02,44.69,20.07,44.69,44.72s-20.06,44.72-44.72,44.72" fill="#2C3357"></path><path class="cls-1" d="M198.22,39v9.89c3.58-6.63,11.78-11.05,20.09-11.05,14.52,0,25.77,11.68,25.77,26.51s-11.26,26.4-25.77,26.4c-8.52,0-16.41-4.21-20.09-10.83v31.56h-6.21V39h6.21Zm-.42,25.35c0,11.36,8.73,20.62,20.09,20.62s19.78-9.05,19.78-20.62-8.73-20.72-19.78-20.72-20.09,9.26-20.09,20.72Zm69.41-3.79l16.83-1.89v-2.95c0-7.68-4.84-12.2-12.83-12.2-7.05,0-11.78,3.68-13.78,10.31l-6-1.68c2.52-8.84,10.1-14.31,19.78-14.31,12.1,0,19.04,6.84,19.04,18.3v33.45h-6v-8.52c-3.47,5.89-10.2,9.68-18.51,9.68-9.57,0-16.09-5.89-16.09-14.2,0-9.15,5.78-14.73,17.57-15.99Zm-.42,24.51c10.1,0,17.25-7.47,17.25-16.3v-4.63l-15.78,1.79c-7.99,.95-12.2,4.73-12.2,10.2s4.42,8.94,10.73,8.94Zm58.46-40.5h-.63c-.42,0-.74-.11-1.47-.11-9.89,0-16.73,8.52-16.73,20.3v24.83h-6.31V39h6.21v10.52c2.21-6.1,9.47-11.36,17.04-11.36,.53,0,1.05,.1,1.37,.1h.53v6.31Zm33.57-5.58h6.31v8.73c3.05-5.58,9.36-9.89,17.88-9.89,12.83,0,20.83,8.73,20.83,22.3v29.45h-6.31v-28.72c0-10.52-5.78-17.25-15.78-17.25s-16.62,8.1-16.62,18.51v27.46h-6.31V39Zm100,38.5c-4.1,7.99-11.89,13.25-21.99,13.25-14.83,0-25.56-10.94-25.56-26.51s10.73-26.4,25.14-26.4,24.4,11.36,24.4,26.09c0,.74-.1,1.16-.1,1.58v.63h-43.02v.1c.32,10.83,8.84,18.72,19.25,18.72,8.1,0,13.15-3.89,16.62-10.1l5.26,2.63Zm-41.02-16.73h36.61c-.84-9.89-8.2-17.36-18.09-17.36s-17.99,8.2-18.51,17.36Zm75.84-16.2h-.63c-.42,0-.74-.11-1.47-.11-9.89,0-16.73,8.52-16.73,20.3v24.83h-6.31V39h6.21v10.52c2.21-6.1,9.47-11.36,17.04-11.36,.53,0,1.05,.1,1.37,.1h.53v6.31Zm8.25,30.4c1.68,5.89,5.79,10.2,12.2,10.2,5.47,0,10.31-3.16,10.31-8.84,0-4.52-2.95-6.73-8.31-8.73l-6-2.1c-8.1-2.84-12.1-7.57-12.1-14.2,0-8.1,6.73-13.46,15.46-13.46,7.99,.1,14.1,5.05,16.2,12.1l-5.58,2.21c-1.58-5.05-5.26-8.84-10.73-8.84-5.05,0-9.15,2.95-9.15,7.57,0,4.1,2.63,7.15,7.99,8.94l5.78,2c8.42,2.95,12.73,7.26,12.73,14.1,0,9.36-7.89,14.83-16.73,14.83-9.57-.11-15.78-5.68-17.78-13.68l5.68-2.1Zm-148.49-35.97v5.68h-8.1v44.92h-6.31V44.68h-8.1v-5.68h8.1v-15.57h6.31v15.57h8.1Z" fill="#2C3357"></path></g></g></svg>